<mxfile host="app.diagrams.net" modified="2024-04-23T20:07:03.889Z" agent="Mozilla/5.0 (Windows NT 10.0; Win64; x64) AppleWebKit/537.36 (KHTML, like Gecko) Chrome/124.0.0.0 Safari/537.36" etag="ytuT-iFArEajmOFv9Rp6" version="24.2.8" type="github">
  <diagram name="Sida-1" id="ER0Ud4G01DrA8j0nnHOV">
    <mxGraphModel dx="1985" dy="2304" grid="1" gridSize="10" guides="1" tooltips="1" connect="1" arrows="1" fold="1" page="1" pageScale="1" pageWidth="827" pageHeight="1169" math="0" shadow="0">
      <root>
        <mxCell id="0" />
        <mxCell id="1" parent="0" />
        <mxCell id="GFNmJ5Qu85lhqB1SMSKR-1" value="Räkna ut vinst" style="whiteSpace=wrap;html=1;aspect=fixed;" vertex="1" parent="1">
          <mxGeometry x="374" y="-160" width="80" height="80" as="geometry" />
        </mxCell>
        <mxCell id="GFNmJ5Qu85lhqB1SMSKR-3" value="Hur gammal?" style="rhombus;whiteSpace=wrap;html=1;align=center;" vertex="1" parent="1">
          <mxGeometry x="374" y="260" width="80" height="80" as="geometry" />
        </mxCell>
        <mxCell id="GFNmJ5Qu85lhqB1SMSKR-5" value="" style="endArrow=classic;html=1;rounded=0;exitX=0;exitY=0.5;exitDx=0;exitDy=0;entryX=1;entryY=0.5;entryDx=0;entryDy=0;" edge="1" parent="1" source="GFNmJ5Qu85lhqB1SMSKR-3" target="GFNmJ5Qu85lhqB1SMSKR-9">
          <mxGeometry width="50" height="50" relative="1" as="geometry">
            <mxPoint x="410" y="280" as="sourcePoint" />
            <mxPoint x="310" y="280" as="targetPoint" />
          </mxGeometry>
        </mxCell>
        <mxCell id="GFNmJ5Qu85lhqB1SMSKR-19" value="&amp;gt;=18" style="edgeLabel;html=1;align=center;verticalAlign=middle;resizable=0;points=[];" vertex="1" connectable="0" parent="GFNmJ5Qu85lhqB1SMSKR-5">
          <mxGeometry x="0.0064" y="2" relative="1" as="geometry">
            <mxPoint as="offset" />
          </mxGeometry>
        </mxCell>
        <mxCell id="GFNmJ5Qu85lhqB1SMSKR-6" value="" style="endArrow=classic;html=1;rounded=0;exitX=1;exitY=0.5;exitDx=0;exitDy=0;entryX=0;entryY=0.5;entryDx=0;entryDy=0;" edge="1" parent="1" source="GFNmJ5Qu85lhqB1SMSKR-3" target="GFNmJ5Qu85lhqB1SMSKR-10">
          <mxGeometry width="50" height="50" relative="1" as="geometry">
            <mxPoint x="460" y="280" as="sourcePoint" />
            <mxPoint x="510" y="280" as="targetPoint" />
            <Array as="points">
              <mxPoint x="500" y="300" />
            </Array>
          </mxGeometry>
        </mxCell>
        <mxCell id="GFNmJ5Qu85lhqB1SMSKR-20" value="else" style="edgeLabel;html=1;align=center;verticalAlign=middle;resizable=0;points=[];" vertex="1" connectable="0" parent="GFNmJ5Qu85lhqB1SMSKR-6">
          <mxGeometry x="-0.0903" relative="1" as="geometry">
            <mxPoint as="offset" />
          </mxGeometry>
        </mxCell>
        <mxCell id="GFNmJ5Qu85lhqB1SMSKR-44" value="" style="edgeStyle=orthogonalEdgeStyle;rounded=0;orthogonalLoop=1;jettySize=auto;html=1;" edge="1" parent="1" source="GFNmJ5Qu85lhqB1SMSKR-9" target="GFNmJ5Qu85lhqB1SMSKR-3">
          <mxGeometry relative="1" as="geometry" />
        </mxCell>
        <mxCell id="GFNmJ5Qu85lhqB1SMSKR-9" value="Vinst=+299.90kr" style="whiteSpace=wrap;html=1;aspect=fixed;" vertex="1" parent="1">
          <mxGeometry x="240" y="260" width="80" height="80" as="geometry" />
        </mxCell>
        <mxCell id="GFNmJ5Qu85lhqB1SMSKR-10" value="Vinst=+&lt;span style=&quot;background-color: initial;&quot;&gt;149.90kr&lt;/span&gt;" style="whiteSpace=wrap;html=1;aspect=fixed;" vertex="1" parent="1">
          <mxGeometry x="500" y="260" width="80" height="80" as="geometry" />
        </mxCell>
        <mxCell id="GFNmJ5Qu85lhqB1SMSKR-35" style="edgeStyle=orthogonalEdgeStyle;rounded=0;orthogonalLoop=1;jettySize=auto;html=1;exitX=0.5;exitY=1;exitDx=0;exitDy=0;entryX=0.5;entryY=0;entryDx=0;entryDy=0;" edge="1" parent="1" source="GFNmJ5Qu85lhqB1SMSKR-13" target="GFNmJ5Qu85lhqB1SMSKR-28">
          <mxGeometry relative="1" as="geometry" />
        </mxCell>
        <mxCell id="GFNmJ5Qu85lhqB1SMSKR-13" value="Första plats i bokningsarray&lt;div&gt;...&lt;/div&gt;&lt;div&gt;&lt;br&gt;&lt;/div&gt;" style="whiteSpace=wrap;html=1;aspect=fixed;" vertex="1" parent="1">
          <mxGeometry x="374" y="-20" width="80" height="80" as="geometry" />
        </mxCell>
        <mxCell id="GFNmJ5Qu85lhqB1SMSKR-15" value="" style="endArrow=classic;html=1;rounded=0;entryX=0.5;entryY=0;entryDx=0;entryDy=0;exitX=0.5;exitY=1;exitDx=0;exitDy=0;" edge="1" parent="1" source="GFNmJ5Qu85lhqB1SMSKR-1" target="GFNmJ5Qu85lhqB1SMSKR-13">
          <mxGeometry width="50" height="50" relative="1" as="geometry">
            <mxPoint x="480" as="sourcePoint" />
            <mxPoint x="530" y="-50" as="targetPoint" />
          </mxGeometry>
        </mxCell>
        <mxCell id="GFNmJ5Qu85lhqB1SMSKR-21" value="Räkna ut ålder från personummer" style="whiteSpace=wrap;html=1;aspect=fixed;" vertex="1" parent="1">
          <mxGeometry x="374" y="160" width="80" height="80" as="geometry" />
        </mxCell>
        <mxCell id="GFNmJ5Qu85lhqB1SMSKR-23" value="" style="endArrow=classic;html=1;rounded=0;entryX=0;entryY=0.5;entryDx=0;entryDy=0;exitX=0.5;exitY=1;exitDx=0;exitDy=0;" edge="1" parent="1" source="GFNmJ5Qu85lhqB1SMSKR-9" target="GFNmJ5Qu85lhqB1SMSKR-27">
          <mxGeometry width="50" height="50" relative="1" as="geometry">
            <mxPoint x="280" y="240" as="sourcePoint" />
            <mxPoint x="330" y="190" as="targetPoint" />
            <Array as="points">
              <mxPoint x="280" y="440" />
            </Array>
          </mxGeometry>
        </mxCell>
        <mxCell id="GFNmJ5Qu85lhqB1SMSKR-47" style="edgeStyle=orthogonalEdgeStyle;rounded=0;orthogonalLoop=1;jettySize=auto;html=1;exitX=0.5;exitY=1;exitDx=0;exitDy=0;entryX=0.5;entryY=0;entryDx=0;entryDy=0;" edge="1" parent="1" source="GFNmJ5Qu85lhqB1SMSKR-27" target="GFNmJ5Qu85lhqB1SMSKR-29">
          <mxGeometry relative="1" as="geometry" />
        </mxCell>
        <mxCell id="GFNmJ5Qu85lhqB1SMSKR-27" value="Ta nästa värde i arrayen..." style="whiteSpace=wrap;html=1;aspect=fixed;" vertex="1" parent="1">
          <mxGeometry x="374" y="400" width="80" height="80" as="geometry" />
        </mxCell>
        <mxCell id="GFNmJ5Qu85lhqB1SMSKR-34" style="edgeStyle=orthogonalEdgeStyle;rounded=0;orthogonalLoop=1;jettySize=auto;html=1;exitX=0.5;exitY=1;exitDx=0;exitDy=0;entryX=0.5;entryY=0;entryDx=0;entryDy=0;" edge="1" parent="1" source="GFNmJ5Qu85lhqB1SMSKR-28" target="GFNmJ5Qu85lhqB1SMSKR-21">
          <mxGeometry relative="1" as="geometry" />
        </mxCell>
        <mxCell id="GFNmJ5Qu85lhqB1SMSKR-36" value="ja" style="edgeLabel;html=1;align=center;verticalAlign=middle;resizable=0;points=[];" vertex="1" connectable="0" parent="GFNmJ5Qu85lhqB1SMSKR-34">
          <mxGeometry x="-0.1167" y="1" relative="1" as="geometry">
            <mxPoint as="offset" />
          </mxGeometry>
        </mxCell>
        <mxCell id="GFNmJ5Qu85lhqB1SMSKR-28" value="Är värdet = ett personummer?" style="rhombus;whiteSpace=wrap;html=1;" vertex="1" parent="1">
          <mxGeometry x="374" y="70" width="80" height="70" as="geometry" />
        </mxCell>
        <mxCell id="GFNmJ5Qu85lhqB1SMSKR-48" style="edgeStyle=orthogonalEdgeStyle;rounded=0;orthogonalLoop=1;jettySize=auto;html=1;exitX=0.5;exitY=1;exitDx=0;exitDy=0;entryX=0.5;entryY=0;entryDx=0;entryDy=0;" edge="1" parent="1" source="GFNmJ5Qu85lhqB1SMSKR-29" target="GFNmJ5Qu85lhqB1SMSKR-45">
          <mxGeometry relative="1" as="geometry" />
        </mxCell>
        <mxCell id="GFNmJ5Qu85lhqB1SMSKR-52" value="Ja" style="edgeLabel;html=1;align=center;verticalAlign=middle;resizable=0;points=[];" vertex="1" connectable="0" parent="GFNmJ5Qu85lhqB1SMSKR-48">
          <mxGeometry x="-0.0773" y="-4" relative="1" as="geometry">
            <mxPoint y="1" as="offset" />
          </mxGeometry>
        </mxCell>
        <mxCell id="GFNmJ5Qu85lhqB1SMSKR-50" style="edgeStyle=orthogonalEdgeStyle;rounded=0;orthogonalLoop=1;jettySize=auto;html=1;exitX=0;exitY=0.5;exitDx=0;exitDy=0;entryX=0;entryY=0.5;entryDx=0;entryDy=0;" edge="1" parent="1" source="GFNmJ5Qu85lhqB1SMSKR-29" target="GFNmJ5Qu85lhqB1SMSKR-28">
          <mxGeometry relative="1" as="geometry">
            <Array as="points">
              <mxPoint x="210" y="545" />
              <mxPoint x="210" y="105" />
            </Array>
          </mxGeometry>
        </mxCell>
        <mxCell id="GFNmJ5Qu85lhqB1SMSKR-51" value="nej" style="edgeLabel;html=1;align=center;verticalAlign=middle;resizable=0;points=[];" vertex="1" connectable="0" parent="GFNmJ5Qu85lhqB1SMSKR-50">
          <mxGeometry x="-0.6714" y="4" relative="1" as="geometry">
            <mxPoint as="offset" />
          </mxGeometry>
        </mxCell>
        <mxCell id="GFNmJ5Qu85lhqB1SMSKR-29" value="Är arrayen slut?" style="rhombus;whiteSpace=wrap;html=1;" vertex="1" parent="1">
          <mxGeometry x="374" y="510" width="80" height="70" as="geometry" />
        </mxCell>
        <mxCell id="GFNmJ5Qu85lhqB1SMSKR-31" value="" style="endArrow=classic;html=1;rounded=0;entryX=1;entryY=0.5;entryDx=0;entryDy=0;" edge="1" parent="1" target="GFNmJ5Qu85lhqB1SMSKR-27">
          <mxGeometry width="50" height="50" relative="1" as="geometry">
            <mxPoint x="540" y="320" as="sourcePoint" />
            <mxPoint x="590" y="270" as="targetPoint" />
            <Array as="points">
              <mxPoint x="540" y="440" />
            </Array>
          </mxGeometry>
        </mxCell>
        <mxCell id="GFNmJ5Qu85lhqB1SMSKR-32" value="" style="endArrow=classic;html=1;rounded=0;exitX=0.5;exitY=1;exitDx=0;exitDy=0;entryX=0.5;entryY=0;entryDx=0;entryDy=0;" edge="1" parent="1" source="GFNmJ5Qu85lhqB1SMSKR-21" target="GFNmJ5Qu85lhqB1SMSKR-3">
          <mxGeometry width="50" height="50" relative="1" as="geometry">
            <mxPoint x="410" y="230" as="sourcePoint" />
            <mxPoint x="460" y="180" as="targetPoint" />
          </mxGeometry>
        </mxCell>
        <mxCell id="GFNmJ5Qu85lhqB1SMSKR-37" value="" style="endArrow=classic;html=1;rounded=0;entryX=1;entryY=0.75;entryDx=0;entryDy=0;" edge="1" parent="1" target="GFNmJ5Qu85lhqB1SMSKR-27">
          <mxGeometry width="50" height="50" relative="1" as="geometry">
            <mxPoint x="460" y="110" as="sourcePoint" />
            <mxPoint x="510" y="60" as="targetPoint" />
            <Array as="points">
              <mxPoint x="500" y="110" />
              <mxPoint x="720" y="110" />
              <mxPoint x="720" y="460" />
            </Array>
          </mxGeometry>
        </mxCell>
        <mxCell id="GFNmJ5Qu85lhqB1SMSKR-38" value="&lt;div&gt;&lt;br&gt;&lt;/div&gt;" style="edgeLabel;html=1;align=center;verticalAlign=middle;resizable=0;points=[];" vertex="1" connectable="0" parent="GFNmJ5Qu85lhqB1SMSKR-37">
          <mxGeometry x="0.0025" y="1" relative="1" as="geometry">
            <mxPoint as="offset" />
          </mxGeometry>
        </mxCell>
        <mxCell id="GFNmJ5Qu85lhqB1SMSKR-42" value="Nej" style="edgeLabel;html=1;align=center;verticalAlign=middle;resizable=0;points=[];" vertex="1" connectable="0" parent="GFNmJ5Qu85lhqB1SMSKR-37">
          <mxGeometry x="-0.4918" y="-3" relative="1" as="geometry">
            <mxPoint as="offset" />
          </mxGeometry>
        </mxCell>
        <mxCell id="GFNmJ5Qu85lhqB1SMSKR-45" value="Visa vinster" style="whiteSpace=wrap;html=1;aspect=fixed;" vertex="1" parent="1">
          <mxGeometry x="374" y="650" width="80" height="80" as="geometry" />
        </mxCell>
      </root>
    </mxGraphModel>
  </diagram>
</mxfile>
